<svg xmlns="http://www.w3.org/2000/svg" version="1.1" xmlns:xlink="http://www.w3.org/1999/xlink" width="1500" height="501" viewBox="0 0 1500 501"><svg xml:space="preserve" width="1500" height="501" data-version="2" data-id="lg_bvNV8bK0LpwtyHItZR" viewBox="0 0 572 501" x="0" y="0"><rect width="100%" height="100%" fill="transparent"></rect><path fill="#48acda" d="M52.84 471.14q-9.5 0-17.06-3.56-7.56-3.57-12.81-9.75-5.25-6.19-8-14.44t-2.75-17.63q0-12.87 4.87-23.06 4.88-10.19 13.94-16.12 9.06-5.94 21.81-5.94 9.5 0 17.07 3.5 7.56 3.5 12.81 9.75 5.25 6.25 8.06 14.37 2.81 8.13 2.81 17.5 0 9.75-2.75 16.94-2.75 7.19-6.5 12.44l11.13 6.12-5.38 9.88-12.12-9q-4.63 3.87-10.88 6.44-6.25 2.56-14.25 2.56m-.25-10.25q5.13 0 9.32-1.25 4.18-1.25 7.18-3.13l-9.5-6 5-9.12 11.25 8.12q3-4.87 4.32-10.68 1.31-5.82 1.31-13.07 0-6.75-1.94-13t-5.62-11.18q-3.69-4.94-9-7.82-5.32-2.87-12.07-2.87-9 0-15.37 4.56-6.38 4.56-9.75 12.44-3.38 7.87-3.38 17.87 0 6.75 1.88 13.07 1.87 6.31 5.5 11.31 3.62 5 8.87 7.87 5.25 2.88 12 2.88" paint-order="stroke"></path><rect width="83.25" height="90.5" x="-41.63" y="-45.25" fill="none" rx="0" ry="0" transform="translate(54.34 426.39)"></rect><path fill="#48acda" d="M111.09 469.64v-65h11.25v65Zm5.63-76.13q-3.25 0-5.56-2.37-2.32-2.38-2.32-5.5 0-3.63 2.13-5.75 2.12-2.13 5.75-2.13 3.25 0 5.56 2.32 2.31 2.31 2.31 5.56 0 3.5-2.12 5.69-2.13 2.18-5.75 2.18" paint-order="stroke"></path><rect width="15.75" height="91.88" x="-7.88" y="-45.94" fill="none" rx="0" ry="0" transform="translate(117.22 424.2)"></rect><path fill="#48acda" d="M168.59 471.14q-9.25 0-16.18-4.31-6.94-4.32-10.69-12-3.75-7.69-3.75-17.69 0-9.38 3.81-17.13 3.81-7.75 10.94-12.31 7.12-4.56 16.75-4.56 5.5 0 9.69 1 4.18 1 8.06 2.87l-3.38 9.5q-3.5-1.75-6.68-2.56-3.19-.81-7.07-.81-8.75 0-14.68 6.31-5.94 6.31-5.94 17.44 0 6.75 2.5 12.25t6.94 8.75q4.43 3.25 10.43 3.25 4.75 0 8.13-1.06 3.37-1.07 7.25-3.07l3.5 9.5q-3.88 2.13-8.69 3.38t-10.94 1.25" paint-order="stroke"></path><rect width="50.25" height="68" x="-25.13" y="-34" fill="none" rx="0" ry="0" transform="translate(163.6 437.64)"></rect><path fill="#48acda" d="m246.22 470.89-33.63-34.63v33.38h-11.25v-92.5h11.25v52.87l29.38-26.62 6.5 7.12-25.13 22.25 30.63 30.63Z" paint-order="stroke"></path><rect width="52.63" height="93.75" x="-26.32" y="-46.88" fill="none" rx="0" ry="0" transform="translate(228.16 424.51)"></rect><path fill="#48acda" d="M265.22 469.64v-65h10.87v14.12q1.63-4.12 4.38-7.68 2.75-3.57 6.87-5.75 4.13-2.19 9.63-2.19 1.87 0 3.75.19 1.87.18 3.12.56l-3.37 11.62q-2.38-1-5.63-1-4.62 0-8.81 2.63-4.19 2.62-6.87 8.12-2.69 5.5-2.69 14v30.38Z" paint-order="stroke"></path><rect width="38.62" height="66.5" x="-19.31" y="-33.25" fill="none" rx="0" ry="0" transform="translate(285.03 436.89)"></rect><path fill="#48acda" d="M338.72 471.14q-9.25 0-16.63-4.31-7.37-4.32-11.56-12-4.19-7.69-4.19-17.69 0-10.5 4.25-18.13 4.25-7.62 11.63-11.75 7.37-4.12 16.5-4.12 9.12 0 16.44 4.12 7.31 4.13 11.62 11.69t4.31 17.94q0 10.37-4.25 18.06-4.25 7.69-11.56 11.94-7.31 4.25-16.56 4.25m0-10q9.87 0 15.37-6.69t5.5-17.31q0-6.5-2.75-11.94-2.75-5.44-7.43-8.75-4.69-3.31-10.69-3.31-9.88 0-15.38 6.5t-5.5 17.25q0 6.5 2.75 12.06 2.75 5.56 7.44 8.88 4.69 3.31 10.69 3.31" paint-order="stroke"></path><rect width="64.75" height="68" x="-32.38" y="-34" fill="none" rx="0" ry="0" transform="translate(339.21 437.64)"></rect><path fill="#48acda" d="M413.47 471.14q-9.25 0-16.63-4.31-7.37-4.32-11.56-12-4.19-7.69-4.19-17.69 0-10.5 4.25-18.13 4.25-7.62 11.63-11.75 7.37-4.12 16.5-4.12 9.12 0 16.44 4.12 7.31 4.13 11.62 11.69t4.31 17.94q0 10.37-4.25 18.06-4.25 7.69-11.56 11.94-7.31 4.25-16.56 4.25m0-10q9.87 0 15.37-6.69t5.5-17.31q0-6.5-2.75-11.94-2.75-5.44-7.43-8.75-4.69-3.31-10.69-3.31-9.88 0-15.38 6.5t-5.5 17.25q0 6.5 2.75 12.06 2.75 5.56 7.44 8.88 4.69 3.31 10.69 3.31" paint-order="stroke"></path><rect width="64.75" height="68" x="-32.38" y="-34" fill="none" rx="0" ry="0" transform="translate(413.96 437.64)"></rect><path fill="#48acda" d="M460.84 469.64v-65h10.88v10.87q3.5-5.25 8.87-8.81 5.38-3.56 12.25-3.56 7.75 0 12.69 3.75 4.94 3.75 6.94 10 3.87-5.75 9.19-9.75 5.31-4 13.18-4 10.63 0 15.82 6.69 5.18 6.68 5.18 17.43v42.38h-11.25v-41.5q0-6.75-3.12-10.94-3.13-4.19-8.63-4.19-5.62 0-10.43 4.19-4.82 4.19-8.44 9.81v42.63h-11.25v-41.5q0-6.75-3.13-10.94-3.12-4.19-8.62-4.19-5.5 0-10.38 4.07-4.87 4.06-8.5 9.56v43Z" paint-order="stroke"></path><rect width="95" height="66.5" x="-47.5" y="-33.25" fill="none" rx="0" ry="0" transform="translate(508.84 436.89)"></rect><rect width="560" height="141.44" x="-280" y="-70.72" fill="none" rx="0" ry="0" transform="translate(286 424.64)"></rect><path fill="#3b5787" d="M413.512 209.26q0 16.65-4.41 31.39-4.41 14.74-12.49 26.72-8.08 11.99-19.48 20.98-11.41 8.99-25.39 14.16l50.61 40.12h-62.77l-41.62-33.46h-42.63q-21.48 0-39.79-7.41-18.32-7.41-31.64-20.73t-20.89-31.64q-7.58-18.31-7.58-40.13v-45.62q0-21.64 7.58-40.04 7.57-18.4 20.89-31.64 13.32-13.24 31.64-20.73 18.31-7.49 39.79-7.49h58.61q21.48 0 39.71 7.49t31.55 20.73q13.33 13.24 20.82 31.64t7.49 40.04Zm-43.29-45.62q0-12.82-4.08-23.23-4.08-10.4-11.49-17.81-7.41-7.41-17.81-11.49-10.41-4.08-22.9-4.08h-58.61q-12.65 0-23.06 4.08-10.41 4.08-17.9 11.49-7.49 7.41-11.57 17.81-4.08 10.41-4.08 23.23v45.62q0 12.82 4.08 23.23t11.57 17.82q7.49 7.41 17.9 11.49 10.41 4.08 23.06 4.08h58.28q12.65 0 23.06-4.08 10.41-4.08 17.9-11.49 7.49-7.41 11.57-17.82t4.08-23.23Z"></path><rect width="258.08" height="278.89" x="-129.04" y="-139.44" fill="none" rx="0" ry="0" transform="translate(284.97 203.69)"></rect><rect width="294.07" height="386.24" x="-147.04" y="-193.12" fill="none" rx="0" ry="0" transform="translate(284.91 198.76)"></rect></svg></svg>